<svg width="24" height="24" viewBox="0 0 24 24" fill="none" xmlns="http://www.w3.org/2000/svg">
<path d="M17.5131 15.1577C17.9068 15.1595 18.2253 15.6172 18.2253 16.1814C18.2253 16.7456 17.904 17.2082 17.5084 17.2049C17.2968 17.2031 15.8842 17.2024 15.6726 17.2019C15.1988 17.2006 14.9879 17.4016 14.8855 18.0323C14.7428 18.91 14.4575 19.6756 14.0644 20.3814C13.9599 20.5691 13.9444 20.8359 14.0459 21.0269C14.4439 21.7753 14.9519 21.83 15.4575 21.638C16.1902 21.36 16.8931 20.9596 17.5722 20.4753C18.9057 19.5247 20.0678 18.2714 20.9393 16.5181C21.6069 15.1753 21.9964 13.6895 22 12.0211C22.0013 11.4152 21.8178 11.1479 21.3922 11.1432C21.0158 11.1389 18.7575 11.1365 18.3811 11.134C17.9686 11.1313 17.6355 10.6515 17.6355 10.0605C17.6355 9.46945 17.9706 8.98476 18.3846 8.98611C18.6791 8.98701 20.8567 8.99107 21.1389 8.99625C21.4095 9.00121 21.506 8.79818 21.3784 8.45185C20.9804 7.37183 20.4349 6.46397 19.784 5.6841C18.7193 4.40894 17.4944 3.57431 16.1735 3.0076C14.505 2.29173 12.8008 2.14301 11.0755 2.35932C9.46855 2.561 7.93232 3.14461 6.48208 4.16468C5.31541 4.98534 4.27006 6.04283 3.43339 7.48405C2.50649 9.08007 1.94804 10.8778 2.00382 13.0011C2.01516 13.4294 2.11271 13.7776 2.47849 13.9871C2.9525 14.2587 3.50028 14.1282 3.89784 13.6753C4.32051 13.1937 4.74674 12.7133 5.23207 12.374C6.47964 11.5013 7.79032 11.1177 9.161 11.1576C10.2712 11.1899 11.3761 11.5123 12.3786 12.1975C13.1955 12.7561 13.9006 13.5171 14.4042 14.6259C14.5697 14.9908 14.7888 15.1807 15.1002 15.1645L17.5131 15.1577Z" fill="#CCCCCC"/>
</svg>
